<svg xmlns="http://www.w3.org/2000/svg" id="Layer_1" version="1.1" viewBox="0 0 363.29 1014.28">
  <defs>
    <style>
      .st2 {
        fill: #f8ad48
      }

      .st3 {
        fill: #f93
      }
    </style>
  </defs>
  <path d="m175.68 782.56-39.04-38.73-27.55 26.76 9.45 30.54 19.43 18.12zM139.34 868.37l16.68 53.91 19.78-18.87zM84.94 692.54l11.34 36.65 12.9-12.61zM231.99 596.56h-68.55l34 33.77zM110.67 599.35l-2.92-2.79h-52.5l11.36 36.73 6.79 6.48zM311.21 596.56h-22.38l16.94 17.96zM166.54 956.31l6.82 22.04 17.21 15.85 17.99-59.3-9.06-8.71zM159.33 721.8l39.78 37.97 39.61-38.53-39.81-37.89zM134.89 622.4l-39.6 38.27L131.26 695l39.42-38.53zM225.16 657.85l38.96 38.69 23.78-23.13 6.69-22.04-30.73-31.1zM161.69 841.37l40.02 37.32 33.65-32.1 1.12-3.7-37.59-37.3zM222.91 782.49l24.73 23.61 17.98-59.26-2.83-2.69z" class="st3" />
  <path d="m184.48 1014.28 6.09-20.08-17.21-15.85zM288.83 596.56h-56.84l-34.55 33.76-34-33.76h-55.7l2.93 2.79-37.28 40.42-6.79-6.48 18.33 59.25 24.24 24.05-12.9 12.6 12.81 41.4 27.55-26.76 39.04 38.73-37.71 36.69-19.43-18.12 20.8 67.24 36.46 35.04-19.78 18.87 10.53 34.03 32.96-30.12 9.06 8.71 26.79-88.31-33.65 32.1-40.02-37.32 37.2-35.78 37.59 37.29 11.16-36.79-24.73-23.61 39.87-38.34 2.83 2.7 22.28-73.43-23.78 23.13-38.96-38.69 38.7-37.59 30.72 31.1 11.18-36.85-16.94-17.95ZM131.26 695l-35.97-34.33 39.59-38.27 35.8 34.08-39.42 38.53Zm107.46 26.24-39.61 38.53-39.78-37.98 39.59-38.45 39.81 37.89Z" class="st2" />
  <path id="bottom-scoop" d="M328.92 545.08c4.92-13.39 7.82-27.5 8.38-42.02 3.02-79.1-64.55-140.24-150.96-136.53-86.41 3.7-158.88 70.84-161.92 149.95-.55 14.51 1.29 28.43 5.18 41.44C12.86 564.96.69 580.39.03 597.8c-.88 23.17 18.9 41.06 44.2 39.96 20.66-.89 38.59-14.16 44.95-31.62 5.06 16.97 22.02 28.75 42.69 27.87 21.35-.92 39.74-15.06 45.51-33.38 4.39 17.88 21.76 30.49 43.1 29.58 20.67-.89 38.6-14.17 44.96-31.63 5.04 16.99 22 28.76 42.68 27.87 25.29-1.09 46.51-20.73 47.4-43.9.66-17.41-10.35-31.83-26.61-37.47" data-name="bottom-scoop" style="fill:#f6b9d3" />
  <path id="middle-scoop" d="M336.65 361.89c4.92-13.39 7.82-27.5 8.38-42.02 3.02-79.1-64.55-140.24-150.96-136.53-86.41 3.7-158.88 70.84-161.92 149.95-.55 14.51 1.29 28.43 5.18 41.44-16.74 7.04-28.91 22.47-29.57 39.88-.88 23.17 18.9 41.06 44.2 39.96 20.66-.89 38.59-14.16 44.95-31.62 5.06 16.97 22.02 28.75 42.69 27.87 21.35-.92 39.74-15.06 45.51-33.38 4.39 17.88 21.76 30.49 43.1 29.58 20.67-.89 38.6-14.17 44.96-31.63 5.04 16.99 22 28.76 42.68 27.87 25.29-1.09 46.51-20.73 47.4-43.9.66-17.41-10.35-31.83-26.61-37.47" data-name="middle-scoop" style="fill:#eedcbf" />
  <path id="top-scoop" d="M336.65 178.71c4.92-13.39 7.82-27.5 8.38-42.02C348.05 57.59 280.48-3.55 194.07.16 107.66 3.86 35.18 71 32.15 150.11c-.55 14.51 1.29 28.43 5.18 41.44-16.74 7.04-28.91 22.47-29.57 39.88-.88 23.17 18.9 41.06 44.2 39.96 20.66-.89 38.59-14.16 44.95-31.62 5.06 16.97 22.02 28.75 42.69 27.87 21.35-.92 39.74-15.06 45.51-33.38 4.39 17.88 21.76 30.49 43.1 29.58 20.67-.89 38.6-14.17 44.96-31.63 5.04 16.99 22 28.76 42.68 27.87 25.29-1.09 46.51-20.73 47.4-43.9.66-17.41-10.35-31.83-26.61-37.47" data-name="top-scoop" style="fill:#836a00" />
</svg>